<svg height="1000" width="642.857" xmlns="http://www.w3.org/2000/svg"><path d="M642.816 392.896v71.424q0 123.318-82.305 214.55T357.12 783.497v73.656h142.848q14.508 0 25.11 10.602t10.602 25.11-10.602 25.11-25.11 10.602h-357.12q-14.508 0-25.11-10.602t-10.602-25.11 10.602-25.11 25.11-10.602h142.848v-73.656Q164.61 770.104 82.306 678.87T0 464.32v-71.424q0-14.508 10.602-25.11t25.11-10.602 25.11 10.602 10.602 25.11v71.424q0 103.23 73.377 176.607t176.608 73.377 176.607-73.377 73.377-176.607v-71.424q0-14.508 10.602-25.11t25.11-10.602 25.11 10.602 10.602 25.11zM499.968 178.624V464.32q0 73.656-52.452 126.108T321.408 642.88 195.3 590.428 142.848 464.32V178.624q0-73.656 52.452-126.108T321.408.064t126.108 52.452 52.452 126.108z"/></svg>